<svg width="101" height="105" viewBox="0 0 101 105" fill="none" xmlns="http://www.w3.org/2000/svg">
<path d="M0.771484 15.082H100.739V104.605H0.771484V15.082Z" fill="#9D70F9"/>
<path d="M0.771484 15.082H100.739V38.9549H0.771484V15.082Z" fill="#FF5656"/>
<path fill-rule="evenodd" clip-rule="evenodd" d="M26.8831 0.907227V18.8119H19.4229V0.907227H26.8831Z" fill="black"/>
<path fill-rule="evenodd" clip-rule="evenodd" d="M82.0882 0.907227V18.8119H74.6279V0.907227H82.0882Z" fill="black"/>
<rect x="8.23242" y="44.9229" width="8.95232" height="8.95232" fill="white"/>
<rect x="33.5967" y="44.9229" width="8.95232" height="8.95232" fill="white"/>
<rect x="58.9619" y="44.9229" width="8.95232" height="8.95232" fill="white"/>
<rect x="84.3262" y="44.9229" width="8.95232" height="8.95232" fill="white"/>
<rect x="8.23242" y="67.3032" width="8.95232" height="8.95232" fill="white"/>
<rect x="33.5967" y="67.3032" width="8.95232" height="8.95232" fill="white"/>
<rect x="58.9619" y="67.3032" width="8.95232" height="8.95232" fill="white"/>
<rect x="84.3262" y="67.3032" width="8.95232" height="8.95232" fill="white"/>
<rect x="8.23242" y="89.6841" width="8.95232" height="8.95232" fill="white"/>
<rect x="33.5967" y="89.6841" width="8.95232" height="8.95232" fill="white"/>
<rect x="58.9619" y="89.6841" width="8.95232" height="8.95232" fill="white"/>
<rect x="84.3262" y="89.6841" width="8.95232" height="8.95232" fill="white"/>
</svg>
