<?xml version="1.0" encoding="UTF-8" standalone="no"?><!DOCTYPE svg PUBLIC "-//W3C//DTD SVG 1.1//EN" "http://www.w3.org/Graphics/SVG/1.1/DTD/svg11.dtd"><svg width="100%" height="100%" viewBox="0 0 460 460" version="1.1" xmlns="http://www.w3.org/2000/svg" xmlns:xlink="http://www.w3.org/1999/xlink" xml:space="preserve" xmlns:serif="http://www.serif.com/" style="fill-rule:evenodd;clip-rule:evenodd;stroke-linejoin:round;stroke-miterlimit:2;"><path d="M459.47,5.514c0,-3.043 -2.47,-5.514 -5.514,-5.514l-448.442,0c-3.043,0 -5.514,2.471 -5.514,5.514l0,448.442c0,3.044 2.471,5.514 5.514,5.514l448.442,0c3.044,0 5.514,-2.47 5.514,-5.514l0,-448.442Zm-21.707,21.602c-0,-2.985 -2.424,-5.408 -5.409,-5.408l-405.238,-0c-2.985,-0 -5.408,2.423 -5.408,5.408l-0,405.238c-0,2.985 2.423,5.409 5.408,5.409l405.238,-0c2.985,-0 5.409,-2.424 5.409,-5.409l-0,-405.238Z" style="fill:#84aff1;"/><path d="M413.209,51.678c-0,-2.989 -2.428,-5.416 -5.417,-5.416l-356.114,-0c-2.989,-0 -5.416,2.427 -5.416,5.416l-0,356.114c-0,2.989 2.427,5.417 5.416,5.417l356.114,-0c2.989,-0 5.417,-2.428 5.417,-5.417l-0,-356.114Z" style="fill:#3865ab;"/><path d="M454.59,85.62c0,-2.99 -2.427,-5.417 -5.416,-5.417l-438.812,0c-2.99,0 -5.417,2.427 -5.417,5.417l41.317,138.698c-0,2.99 2.427,5.417 5.416,5.417l356.114,0c2.989,0 5.417,-2.427 5.417,-5.417l41.381,-138.698Z" style="fill:#3865ab;"/><g><path d="M178.518,318.501c38.813,-0 66.574,-21.348 66.489,-50.88c0.085,-21.517 -13.584,-36.873 -38.982,-40.08l-0,-1.35c19.322,-3.459 32.654,-17.129 32.57,-36.535c0.084,-27.254 -23.795,-48.686 -59.571,-48.686c-35.439,-0 -62.102,20.756 -62.609,50.626l35.017,0c0.422,-13.163 12.488,-21.685 27.423,-21.685c14.766,0 24.638,8.944 24.554,21.938c0.084,13.585 -11.475,22.782 -28.098,22.782l-16.116,0l0,26.833l16.116,-0c19.576,-0 31.811,9.787 31.726,23.71c0.085,13.753 -11.728,23.204 -28.435,23.204c-16.116,-0 -28.182,-8.438 -28.857,-21.095l-36.789,0c0.591,30.208 27.592,51.218 65.562,51.218Z" style="fill:url(#_Linear1);fill-rule:nonzero;"/><path d="M346.514,143.332l-34.342,0l-42.779,27.085l-0,32.402l39.573,-24.808l1.013,0l-0,138.127l36.535,0l0,-172.806Z" style="fill:url(#_Linear2);fill-rule:nonzero;"/></g><path d="M454.59,85.62c0,-2.99 -2.427,-5.417 -5.416,-5.417l-438.812,0c-2.99,0 -5.417,2.427 -5.417,5.417l41.317,138.698c-0,2.99 2.427,5.417 5.416,5.417l356.114,0c2.989,0 5.417,-2.427 5.417,-5.417l41.381,-138.698Z" style="fill-opacity:0.2;"/><defs><linearGradient id="_Linear1" x1="0" y1="0" x2="1" y2="0" gradientUnits="userSpaceOnUse" gradientTransform="matrix(272.963,0,0,287.56,100.637,229.735)"><stop offset="0" style="stop-color:#f2cc0c;stop-opacity:1"/><stop offset="1" style="stop-color:#ff9830;stop-opacity:1"/></linearGradient><linearGradient id="_Linear2" x1="0" y1="0" x2="1" y2="0" gradientUnits="userSpaceOnUse" gradientTransform="matrix(272.963,0,0,287.56,100.637,229.735)"><stop offset="0" style="stop-color:#f2cc0c;stop-opacity:1"/><stop offset="1" style="stop-color:#ff9830;stop-opacity:1"/></linearGradient></defs></svg>